<?xml version="1.0" encoding="utf-8"?>
<!-- Generator: Adobe Illustrator 16.0.0, SVG Export Plug-In . SVG Version: 6.00 Build 0)  -->
<!DOCTYPE svg PUBLIC "-//W3C//DTD SVG 1.1//EN" "http://www.w3.org/Graphics/SVG/1.1/DTD/svg11.dtd">
<svg version="1.1" id="Layer_1" xmlns="http://www.w3.org/2000/svg" xmlns:xlink="http://www.w3.org/1999/xlink" x="0px" y="0px"
	 width="16.907px" height="17.006px" viewBox="21.201 19.835 16.907 17.006" enable-background="new 21.201 19.835 16.907 17.006"
	 xml:space="preserve">
<path fill="#8B8B8B" d="M31.261,31.295l0.001-0.001c0,0-0.39-0.298-0.331-0.676c0.027-0.171,0.57-0.742,0.57-0.742L31.5,29.875
	c0.509-0.567,0.827-1.365,0.827-2.25c0-1.724-1.203-3.122-2.686-3.122s-2.686,1.398-2.686,3.122c0,0.886,0.318,1.683,0.828,2.25
	l-0.003,0.001c0,0,0.542,0.571,0.57,0.742c0.06,0.378-0.33,0.676-0.33,0.676l0.001,0.001c-1.445,0.27-2.718,0.89-3.662,1.741
	c1.284,1.474,3.174,2.406,5.282,2.406c2.109,0,3.998-0.933,5.282-2.406C33.979,32.185,32.707,31.564,31.261,31.295z M38.108,22.679
	c0-1.57-1.273-2.844-2.843-2.844c-0.821,0-1.559,0.351-2.078,0.907c-1.079-0.5-2.279-0.781-3.546-0.781
	c-4.661,0-8.44,3.779-8.44,8.44s3.779,8.439,8.44,8.439s8.439-3.778,8.439-8.439c0-1.318-0.303-2.566-0.842-3.678
	C37.774,24.206,38.108,23.482,38.108,22.679z M35.265,20.568c1.166,0,2.111,0.944,2.111,2.11s-0.945,2.111-2.111,2.111
	c-1.166,0-2.111-0.945-2.111-2.111S34.099,20.568,35.265,20.568z M29.641,35.919c-4.152,0-7.518-3.366-7.518-7.518
	c0-4.152,3.366-7.518,7.518-7.518c1.078,0,2.102,0.229,3.028,0.637c-0.158,0.354-0.248,0.745-0.248,1.158
	c0,1.57,1.273,2.844,2.843,2.844c0.431,0,0.837-0.099,1.203-0.27c0.442,0.958,0.691,2.023,0.691,3.148
	C37.159,32.553,33.793,35.919,29.641,35.919z M36.52,22.663c0,0.14-0.113,0.252-0.253,0.252h-0.746v0.746l0,0l0,0
	c0,0.14-0.113,0.253-0.253,0.253s-0.253-0.113-0.253-0.253l0,0l0,0v-0.746H34.27c-0.14,0-0.253-0.113-0.253-0.252
	c0-0.141,0.113-0.254,0.253-0.254c0,0,0,0,0.001,0h0.745v-0.745l0,0c0-0.14,0.113-0.253,0.253-0.253s0.253,0.113,0.253,0.253l0,0
	v0.745h0.745c0,0,0.001,0,0.001,0C36.406,22.409,36.52,22.522,36.52,22.663z"/>
<text transform="matrix(1 0 0 1 992 472)" font-family="'MyriadPro-Regular'" font-size="12">8B8B8B</text>
</svg>
